<?xml version="1.0" standalone="no"?><!DOCTYPE svg PUBLIC "-//W3C//DTD SVG 1.1//EN" "http://www.w3.org/Graphics/SVG/1.1/DTD/svg11.dtd"><svg t="1611145508988" class="icon" viewBox="0 0 1041 1024" version="1.1" xmlns="http://www.w3.org/2000/svg" p-id="917" xmlns:xlink="http://www.w3.org/1999/xlink" width="203.3203125" height="200"><defs><style type="text/css">{@font-face { font-weight: normal; font-style: normal; }
</style></defs><path d="M377.77078117 551.63778613c-0.4950016 0.64278528-0.95413475 1.26763577-1.17509234 2.0574868l-36.58352981 138.47434467c-2.13066183 8.06207829 0.03658752 16.74900821 5.83959097 22.86479588 4.29791005 4.35243235 10.02773959 6.75785614 16.08828814 6.75785614 1.98359609 0 4.02243015-0.23817443 5.96872192-0.77119943l133.20364715-37.51972864c0.20230485 0 0.31206627 0.16500053 0.49571954 0.16500053 1.52446293 0 3.03027427-0.56961138 4.1508443-1.76335531l356.23153664-367.5814343c10.59663303-10.94528683 16.38170169-25.8398299 16.38170169-42.03787947 0-18.36529778-7.52977237-36.73059555-20.77072043-50.33956807l-33.64580011-34.80223971c-13.20436167-13.62690731-31.0187008-21.43215843-48.7964524-21.43215845-15.70233003 0-30.11908835 5.96872192-40.75230891 16.89607397L378.30308709 550.37086717c-0.38595811 0.34865379-0.2575451 0.86302606-0.53302386 1.26691896M827.16961637 278.34493835l-35.37113315 36.49170319-57.37362091-60.1276985 34.87613156-36.01463523c5.50958877-5.71189475 16.19804957-4.88545621 22.51542414 1.70739826l33.6637349 34.76637013c3.48940629 3.61782045 5.50958877 8.46597234 5.50958876 13.20436167 0.01865273 3.91195193-1.34080967 7.41929301-3.8201253 9.97178255M441.11312286 557.4056368l257.05892864-265.2867254L755.54495561 352.30113106 498.98174537 617.07348533l-57.86862251-59.66856533zM394.26296222 664.9703253l18.60419015-70.37639453 49.54971592 51.14807069-68.15390607 19.22832384z m435.93692843-240.95270685c-13.47984157 0-25.36204629 11.31331015-25.4172854 25.41728541v343.96409173c0 17.99799125-14.14127957 31.90037845-31.58831218 31.90037846H225.30222267c-17.44703261 0-30.41250304-13.93897358-30.41250304-31.90037846V227.30662795c0-17.99799125 12.9654693-31.53307307 30.41250304-31.53307307h376.01153592c13.53508067 0 24.57219413-12.45181497 24.57219414-26.42737606S614.84955721 143.35928203 601.31375859 143.35928203H221.55598921C179.1134989 143.35928203 143.79760485 179.63074557 143.79760485 223.46856786v573.78642261c0 43.83853909 35.27930653 80.71620039 77.75838436 80.71620153h555.36660252c42.51566421 0 78.6587136-36.8776613 78.6587136-80.71548358V449.26990333c-0.05523911-13.95762631-11.90157426-25.25228487-25.38141468-25.25228488" fill="#C5C5C5" p-id="918"></path></svg>