<?xml version="1.0" standalone="no"?><!DOCTYPE svg PUBLIC "-//W3C//DTD SVG 1.1//EN" "http://www.w3.org/Graphics/SVG/1.1/DTD/svg11.dtd"><svg t="1611122380935" class="icon" viewBox="0 0 1024 1024" version="1.1" xmlns="http://www.w3.org/2000/svg" p-id="903" xmlns:xlink="http://www.w3.org/1999/xlink" width="200" height="200"><defs><style type="text/css">@font-face { font-weight: normal; font-style: normal; }
</style></defs><path d="M139.17297778 360.52800853c0-80.15780978 53.00357499-150.62211698 123.84070921-171.50043022C302.22266217 85.94090666 399.28196362 11.37550222 512.86992972 11.37550222s208.90740812 74.56540445 248.11638329 177.65207609C834.06040937 210.21658074 884.82702222 279.9352339 884.82702222 360.52800853c0 99.42053925-77.05091792 180.19972741-174.60732207 180.19972741a36.72346169 36.72346169 0 0 1-34.7350509-36.10208332 34.92146442 34.92146442 0 0 1 34.7350509-36.16422116A107.49845808 107.49845808 0 0 0 779.19269925 279.9352339l-6.2137837-6.21378372a31.06891852 31.06891852 0 0 0-8.01578097-6.2137837c-1.73985943-2.36123781-5.84095668-2.36123781-8.01578098-4.22537292h-2.23696213c-1.73985943-2.23696213-3.97682157-2.23696213-5.77881885-4.16323508h-2.23696213c-1.80199728 0-4.03895941-2.23696213-6.21378371-2.23696213s-4.03895941 0-4.0389594-1.86413511h-5.84095668a7.02157558 7.02157558 0 0 1-6.21378371-2.36123781h-16.46652681a74.19257742 74.19257742 0 0 1-3.97682157-19.01417813c-1.80199728 0-1.80199728-2.29909997-1.80199728-4.16323508-2.23696213-4.16323508-2.23696213-8.32647017-4.03895941-12.42756741 0-2.29909997-2.1748243-2.29909997-2.17482429-4.66033778-1.80199728-4.16323508-4.03895941-8.32647017-6.21378371-12.4275674v-4.16323508c-1.80199728-4.16323508-6.2137837-8.32647017-8.07791881-12.42756741a194.30501642 194.30501642 0 0 0-339.39686589 0l-5.84095669 12.42756741c0 1.36703242-0.86992972 1.36703242-1.30489458 2.73406483l-0.93206755 1.42917025-6.2137837 12.4275674v4.66033778l-5.77881885 12.42756741v4.16323508a58.78239383 58.78239383 0 0 0-4.47392427 19.01417813H299.48859733a6.2137837 6.2137837 0 0 1-5.71668101 2.29909998h-4.0389594c-1.80199728 1.42917025-2.67192699 1.86413511-3.16902969 1.8641351a0.68351621 0.68351621 0 0 1-0.62137838 0.37282703 0.68351621 0.68351621 0 0 1-0.6835162-0.37282703c-1.80199728 0-4.03895941 2.29909997-5.84095668 2.29909997h-3.97682157c-2.23696213 1.92627295-4.03895941 1.92627295-6.2137837 4.16323508h-2.23696213c-1.80199728 1.86413511-4.03895941 1.86413511-5.84095669 4.22537292h-2.23696213a74.56540445 74.56540445 0 0 1-6.2137837 6.2137837 32.24953742 32.24953742 0 0 0-8.01578098 6.21378372c-22.74244835 19.07631597-34.30008605 48.71606423-34.30008605 80.77918814 0 59.77659923 46.78979129 107.56059591 103.335223 107.56059591A34.79718875 34.79718875 0 0 1 350.4416237 504.2528256a36.47491035 36.47491035 0 0 1-36.53704818 36.16422115C218.46085783 540.41704675 139.17297778 459.76213428 139.17297778 360.59014636z m233.82468077 120.48526602a48.77820208 48.77820208 0 0 1 8.07791882-25.47651319l105.63432295-120.42312818a35.79139413 35.79139413 0 0 1 26.28430507-10.68770797 40.14104272 40.14104272 0 0 1 26.71926993 10.62557014l103.39736083 120.48526601a36.03994548 36.03994548 0 0 1-26.28430507 61.20576948 34.0515347 34.0515347 0 0 1-24.54444563-12.42756741l-44.49069132-50.58019935v181.75317334a33.98939685 33.98939685 0 0 1-34.79718874 35.66711846c-20.00838352 0-34.30008605-13.9188755-34.30008604-35.66711846V453.73476408l-44.49069132 50.51806152a38.5875968 38.5875968 0 0 1-26.71926993 12.42756741 35.97780765 35.97780765 0 0 1-34.36222388-35.66711846z m0 0M289.60868125 778.2185491v97.24571495a98.79916089 98.79916089 0 0 0 0.99420538 15.78301061 19.69769435 19.69769435 0 0 0 3.79040807 9.44495124 15.22377008 15.22377008 0 0 0 7.70509179 4.84675128 43.49648592 43.49648592 0 0 0 12.42756741 1.42917025 79.22574222 79.22574222 0 0 0 17.39859437-1.61558375v45.23634535c-4.34964859 0.4971027-8.8857107 0.99420539-13.73246199 1.36703242s-9.69350258 0.62137837-14.54025386 0.62137837A151.98914939 151.98914939 0 0 1 269.66243555 949.65684148a46.85192912 46.85192912 0 0 1-22.43175917-11.30908634 46.29268859 46.29268859 0 0 1-12.4275674-22.18320783 139.06447929 139.06447929 0 0 1-3.79040806-35.54284278v-102.40315543h-28.64554287V732.17441185h28.7076807v-51.63654257h58.5338425V732.17441185h45.17420752v46.04413725zM462.28973037 728.5704173a199.27604338 199.27604338 0 0 1 46.23055075 4.59819994 81.27629085 81.27629085 0 0 1 30.26112665 13.54604847 49.71026963 49.71026963 0 0 1 16.52866465 21.99679432 84.81814755 84.81814755 0 0 1 5.09530263 30.50967798v150.93280617h-52.44433446l-5.65454317-25.35223752a54.68129659 54.68129659 0 0 1-24.85513481 20.75403757 101.1603987 101.1603987 0 0 1-44.80138051 8.69929719c-24.85513482 0-43.06152107-5.46812965-55.92405333-16.34225114s-18.64135111-27.65133748-18.64135112-50.26951017q0-37.90408059 22.8045862-53.25212633T447.81161435 819.1673837h54.12205605v-5.65454317a63.44273162 63.44273162 0 0 0-1.86413511-16.52866465 20.38121055 20.38121055 0 0 0-6.7108864-11.30908634 34.7350509 34.7350509 0 0 0-14.16742684-6.21378371 112.4073472 112.4073472 0 0 0-23.42596457-1.98841078c-7.76722963 0-15.5965971 0.31068918-23.36382673 0.99420539s-15.47232142 1.6777216-23.05313753 3.04475401v-49.71026962c8.388608-1.11848107 17.39859437-1.92627295 27.09209695-2.42337565s18.08211058-0.80779188 25.8493402-0.80779188z m-14.54025387 180.82110578a75.68388551 75.68388551 0 0 0 34.30008605-7.08371343 41.88090217 41.88090217 0 0 0 19.82197002-18.33066192v-25.47651318H456.69732503a68.84872343 68.84872343 0 0 0-31.06891851 5.28171615c-6.2137837 3.47971888-9.44495123 10.74984581-9.44495123 21.8103808a21.18900243 21.18900243 0 0 0 7.45654044 18.33066192 41.94304 41.94304 0 0 0 24.17161862 5.46812966zM821.63284195 732.17441185v201.01590281a126.26408485 126.26408485 0 0 1-6.2137837 40.57600759 70.15361802 70.15361802 0 0 1-20.38121055 30.6960915 98.05350685 98.05350685 0 0 1-37.28270222 19.57341866 200.95376498 200.95376498 0 0 1-56.91825873 6.89729991c-9.94205392 0-20.56762405-0.4971027-31.8767104-1.42917024s-21.37541595-2.23696213-30.26112663-3.8525459v-46.41696427a197.90901097 197.90901097 0 0 0 28.27271585 4.84675129 285.83405037 285.83405037 0 0 0 29.45333475 1.61558376 139.31303063 139.31303063 0 0 0 30.44754016-2.85834051 51.76081825 51.76081825 0 0 0 20.8161754-9.0721242 36.66132385 36.66132385 0 0 0 11.86832687-16.71507817 76.24312605 76.24312605 0 0 0 3.8525459-26.28430506v-11.68191337a50.58019935 50.58019935 0 0 1-21.56182945 22.8045862q-14.78880522 8.26433232-44.24213997 8.26433233a101.1603987 101.1603987 0 0 1-43.49648593-8.07791882 67.6059667 67.6059667 0 0 1-27.09209695-22.61817268 89.16779615 89.16779615 0 0 1-13.9188755-34.85932658 248.05424545 248.05424545 0 0 1-3.79040805-45.42275887 227.30020788 227.30020788 0 0 1 3.79040805-42.37800487 96.93502578 96.93502578 0 0 1 13.9188755-35.54284278 71.45851259 71.45851259 0 0 1 27.09209695-24.23375644 93.76599609 93.76599609 0 0 1 43.49648593-8.8857107c19.94624569 0 34.79718875 2.79620267 44.61496699 8.26433232a47.78399668 47.78399668 0 0 1 21.18900243 23.61237808V732.17441185z m-106.56639052 175.22870045a62.94562892 62.94562892 0 0 0 26.22216724-4.66033779 36.10208332 36.10208332 0 0 0 15.72087276-13.35963496 51.26371555 51.26371555 0 0 0 7.45654045-21.37541594 200.02169742 200.02169742 0 0 0 1.86413511-28.83195638 189.27185162 189.27185162 0 0 0-1.86413511-28.08630235 52.63074797 52.63074797 0 0 0-7.45654045-21.18900243 35.54284278 35.54284278 0 0 0-15.72087276-13.48391063 62.94562892 62.94562892 0 0 0-26.22216724-4.66033778 45.54703455 45.54703455 0 0 0-24.42016995 5.65454317 36.03994548 36.03994548 0 0 0-13.73246198 14.91308089 64.06410998 64.06410998 0 0 0-6.21378371 21.37541594 222.82628362 222.82628362 0 0 0-1.36703241 25.47651319 234.94316183 234.94316183 0 0 0 1.36703241 26.40858073 61.5785965 61.5785965 0 0 0 6.21378371 21.62396729 37.28270222 37.28270222 0 0 0 13.91887549 14.72666738 46.72765345 46.72765345 0 0 0 24.23375644 5.46812967z" fill="#3097EE" p-id="904"></path></svg>